{"title":"Super.Fun.Night.S01E03.Chick.Or.Treat.1080p.WEB-DL.DD5.1.H.264-N","uid":9380180,"size":925079547,"categoryP":"video","categoryS":"hd___tv_shows","magnet":"?xt=urn:btih:e503600677d9876ab2a1c69fd1836927daf27c41&amp;dn=Super.Fun.Night.S01E03.Chick.Or.Treat.1080p.WEB-DL.DD5.1.H.264-N&amp;tr=udp%3A%2F%2Ftracker.openbittorrent.com%3A80&amp;tr=udp%3A%2F%2Fopen.demonii.com%3A1337&amp;tr=udp%3A%2F%2Ftracker.coppersurfer.tk%3A6969&amp;tr=udp%3A%2F%2Fexodus.desync.com%3A6969","seeders":1,"leechers":0,"uploader":"azcom_","files":1,"time":1387699168,"description":"General\nUnique ID                      : 218737601325849075189748582310627138458 (0xA48F54630127CBE7A377CEFFBCC65B9A)\nComplete name                  : Super.Fun.Night.S01E03.Chick.Or.Treat.1080p.WEB-DL.DD5.1.H.264-NTb.mkv\nFormat                         : Matroska\nFormat version                 : Version 2\nFile size                      : 882 MiB\nDuration                       : 21mn 35s\nOverall bit rate               : 5 711 Kbps\nEncoded date                   : UTC 2013-10-17 09:16:54\nWriting application            : mkvmerge v5.8.0 ('No Sleep / Pillow') built on Sep  2 2012 15:37:04\nWriting library                : libebml v1.2.3 + libmatroska v1.3.0\n\nVideo\nID                             : 1\nFormat                         : AVC\nFormat/Info                    : Advanced Video Codec\nFormat profile                 : &lt;a class=&quot;__cf_email__&quot; href=&quot;/cdn-cgi/l/email-protection&quot; data-cfemail=&quot;5911303e3119156d7769&quot;&gt;[email&amp;#160;protected]&lt;/a&gt;&lt;script cf-hash='f9e31' type=&quot;text/javascript&quot;&gt;\n/* &lt;![CDATA[ */!function(){try{var t=&quot;currentScript&quot;in document?document.currentScript:function(){for(var t=document.getElementsByTagName(&quot;script&quot;),e=t.length;e--;)if(t[e].getAttribute(&quot;cf-hash&quot;))return t[e]}();if(t&amp;&amp;t.previousSibling){var e,r,n,i,c=t.previousSibling,a=c.getAttribute(&quot;data-cfemail&quot;);if(a){for(e=&quot;&quot;,r=parseInt(a.substr(0,2),16),n=2;a.length-n;n+=2)i=parseInt(a.substr(n,2),16)^r,e+=String.fromCharCode(i);e=document.createTextNode(e),c.parentNode.replaceChild(e,c)}}}catch(u){}}();/* ]]&gt; */&lt;/script&gt;\nFormat settings, CABAC         : Yes\nFormat settings, ReFrames      : 4 frames\nCodec ID                       : V_MPEG4/ISO/AVC\nDuration                       : 21mn 35s\nBit rate                       : 5 213 Kbps\nWidth                          : 1 916 pixels\nHeight                         : 1 080 pixels\nDisplay aspect ratio           : 16:9\nFrame rate mode                : Constant\nFrame rate                     : 23.976 fps\nColor space                    : YUV\nChroma subsampling             : 4:2:0\nBit depth                      : 8 bits\nScan type                      : Progressive\nBits/(Pixel*Frame)             : 0.105\nStream size                    : 805 MiB (91%)\nLanguage                       : English\nDefault                        : Yes\nForced                         : No\nColor primaries                : BT.709\nTransfer characteristics       : BT.709\nMatrix coefficients            : BT.709\n\nAudio\nID                             : 2\nFormat                         : AC-3\nFormat/Info                    : Audio Coding 3\nMode extension                 : CM (complete main)\nFormat settings, Endianness    : Big\nCodec ID                       : A_AC3\nDuration                       : 21mn 35s\nBit rate mode                  : Constant\nBit rate                       : 384 Kbps\nChannel count                  : 6 channels\nChannel positions              : Front: L C R, Side: L R, LFE\nSampling rate                  : 48.0 KHz\nBit depth                      : 16 bits\nCompression mode               : Lossy\nStream size                    : 59.3 MiB (7%)\nLanguage                       : English\nDefault                        : Yes\nForced                         : No\n\nText\nID                             : 3\nFormat                         : UTF-8\nCodec ID                       : S_TEXT/UTF8\nCodec ID/Info                  : UTF-8 Plain Text\nLanguage                       : English\nDefault                        : Yes\nForced                         : No\n\n","torrent":{"xt":"urn:btih:e503600677d9876ab2a1c69fd1836927daf27c41","amp;dn":"Super.Fun.Night.S01E03.Chick.Or.Treat.1080p.WEB-DL.DD5.1.H.264-N","amp;tr":["udp%3A%2F%2Ftracker.openbittorrent.com%3A80","udp%3A%2F%2Fopen.demonii.com%3A1337","udp%3A%2F%2Ftracker.coppersurfer.tk%3A6969","udp%3A%2F%2Fexodus.desync.com%3A6969"],"infoHash":"e503600677d9876ab2a1c69fd1836927daf27c41","infoHashBuffer":{"type":"Buffer","data":[229,3,96,6,119,217,135,106,178,161,198,159,209,131,105,39,218,242,124,65]},"announce":[],"urlList":[]}}